<?xml version="1.0" encoding="UTF-8"?>
<svg xmlns="http://www.w3.org/2000/svg" width="512" height="512" viewBox="0 0 512 512" role="img" aria-label="8LAN icon">
  <path d="M 422.500 168.000 A 166.500 145.000 0 1 0 89.500 168.000 A 166.500 145.000 0 1 0 422.500 168.000 Z M 422.500 344.000 A 166.500 145.000 0 1 0 89.500 344.000 A 166.500 145.000 0 1 0 422.500 344.000 Z M 341.500 168.000 A 85.500 78.000 0 1 0 170.500 168.000 A 85.500 78.000 0 1 0 341.500 168.000 Z M 341.500 344.000 A 85.500 78.000 0 1 0 170.500 344.000 A 85.500 78.000 0 1 0 341.500 344.000 Z" fill="#F2663A" fill-rule="evenodd"/>
</svg>
